{
.appVersion = "3436";
.formatVersion = 3;
DisplayStrings = (
"ol
bpdq
scez
gs
nmhur
ijtf
vwy
kxz

kxzvwyz

pqjgy
peggy gou
keep kerry kant
yank faintly
jet fuel 
wane
waverly, place
There, there
wvy yesterday
xavier
xylophone
ecstaticly
native
verily vintage ost
volumetric
just in time

hamburgefontsiv 

froggy gallery
affably
system
saturn
fragmented
formative
non-native
finangle
fragrant harbor
zero one two
ziggy
eons
aesop
ces
crush

katzelmacher
zeta  fettered feta
egg-y geffen
aesthetic 
thematic
flagrant fabrizio
flatten fated
prefabrication 
elaborate methods

matter of fact

nonononononono

toto
adqbp
android
naan
adhesion
zero one two
pardon
parallax
parking
sardine
manual and automatic
medium
aperture
elite haxor
neo
tai chi
when we get by
 
Amulet 

Hello, World

We Are Vapors

Alone, Omen 

Cantonese

Pearl River Deli

Amulet",
"OEQ
SCG
DBRP
UJ
IHTLFE
AVWMN
KXYZ

HOHOHOOHHOOH
VAND WANDA HAVANA ALWAYS

Absolutely On Music
Quark Quaternion
Teenage Engineering
Psychic Embrace
Quaking
Hanst Solar
Grand Journey
Dot. D.o.t. Dot...
Sheriff Sans-Serif
Sassafras Sinsolo
Out Getting Ribs
Superduper
Nice Unusual DJ
Once A Quarter
Wallabee
ascedogph

ascended heroes
                
List Comprehension
Lotus
Eternally Summer
Odometer Outwards
Heating Hematology
An Object Self-Defined
Zoology Zebra
Xander Xerox
Yesterday
Pirateship
How To
Braggadocious
Quiet Relay
Drag Race
Hello Height
Goodbye Mane
Whether Or Not
On The Level
Level I
Level II
Level IV
Ontario Ooblets Object
Question And Answer
Acronym Anchor
Atlanta
hrnmu 
nm.cards
New Orleans
Avery
Another Lobster",
"/Placeholder o/Placeholder o/Placeholder oo/Placeholder/Placeholder ooo

hmanru

ase

 z
oesc
b
yzx",
j
);
date = "2021-03-20 22:01:39 +0000";
familyName = "New Font";
fontMaster = (
{
id = m01;
metricValues = (
{
over = 16;
pos = 800;
},
{
over = 16;
pos = 700;
},
{
over = 16;
pos = 506;
},
{
over = -16;
pos = -9;
},
{
over = -16;
pos = -200;
}
);
name = Regular;
visible = 1;
}
);
glyphs = (
{
glyphname = A;
lastChange = "2022-02-22 07:13:46 +0000";
layers = (
{
layerId = m01;
shapes = (
{
closed = 1;
nodes = (
(311,800,l),
(20,-9,l),
(54,-9,l),
(333,777,l),
(321,777,l),
(600,-9,l),
(634,-9,l),
(343,800,l)
);
},
{
closed = 1;
nodes = (
(513,271,l),
(513,298,l),
(135,298,l),
(135,271,l)
);
}
);
width = 654;
}
);
unicode = 65;
},
{
glyphname = B;
lastChange = "2021-05-04 06:20:06 +0000";
layers = (
{
layerId = m01;
shapes = (
{
closed = 1;
nodes = (
(35,800,l),
(35,-9,l),
(65,-9,l),
(65,800,l)
);
},
{
closed = 1;
nodes = (
(60,-9,l),
(319,-9,l),
(547,-9,o),
(557,159,o),
(557,206,cs),
(557,351,o),
(475,424,o),
(348,424,c),
(60,424,l),
(60,403,l),
(329,403,l),
(445,403,o),
(524,345,o),
(524,202,cs),
(524,140,o),
(492,18,o),
(341,18,c),
(60,18,l)
);
},
{
closed = 1;
nodes = (
(60,403,l),
(296,403,l),
(465,403,o),
(514,488,o),
(514,601,cs),
(514,718,o),
(436,800,o),
(325,800,c),
(60,800,l),
(60,773,l),
(306,773,l),
(422,773,o),
(482,712,o),
(482,601,cs),
(482,513,o),
(462,430,o),
(308,430,c),
(60,430,l)
);
}
);
width = 577;
},
{
associatedMasterId = m01;
layerId = "7BCB8817-03CA-4B5D-A59D-C0CA1D441EB2";
name = "May 3, 21, 20:56";
shapes = (
{
closed = 1;
nodes = (
(111,403,l),
(277,403,l),
(408,403,o),
(459,346,o),
(459,151,cs),
(459,84,o),
(460,24,o),
(494,-9,c),
(530,-9,l),
(496,24,o),
(489,75,o),
(489,147,cs),
(489,285,o),
(488,425,o),
(286,425,cs),
(111,425,l)
);
}
);
visible = 1;
width = 562;
}
);
metricLeft = l;
unicode = 66;
},
{
glyphname = C;
lastChange = "2021-05-04 04:43:52 +0000";
layers = (
{
layerId = m01;
shapes = (
{
closed = 1;
nodes = (
(660,582,l),
(611,713,o),
(508,800,o),
(355,800,cs),
(137,800,o),
(21,619,o),
(21,387,cs),
(21,154,o),
(135,-25,o),
(355,-25,cs),
(521,-25,o),
(628,76,o),
(671,225,c),
(635,225,l),
(595,93,o),
(503,5,o),
(355,5,cs),
(153,5,o),
(55,171,o),
(55,387,cs),
(55,604,o),
(154,770,o),
(355,770,cs),
(491,770,o),
(579,696,o),
(624,582,c)
);
}
);
width = 691;
}
);
unicode = 67;
},
{
glyphname = D;
lastChange = "2021-05-05 02:54:40 +0000";
layers = (
{
layerId = m01;
shapes = (
{
closed = 1;
nodes = (
(35,800,l),
(35,-9,l),
(65,-9,l),
(65,800,l)
);
},
{
closed = 1;
nodes = (
(51,770,l),
(225,770,l),
(448,770,o),
(557,604,o),
(557,387,cs),
(557,171,o),
(448,21,o),
(225,21,c),
(51,21,l),
(51,-9,l),
(225,-9,l),
(466,-9,o),
(591,154,o),
(591,387,cs),
(591,619,o),
(466,800,o),
(225,800,c),
(51,800,l)
);
}
);
width = 611;
},
{
associatedMasterId = m01;
layerId = "FA387278-C5C1-4B42-A45A-0A6F39B9273F";
name = "May 2, 21, 15:03";
shapes = (
{
closed = 1;
nodes = (
(441,-25,o),
(567,154,o),
(567,387,cs),
(567,619,o),
(441,800,o),
(220,800,cs),
(2,800,o),
(-125,619,o),
(-125,387,cs),
(-125,154,o),
(0,-25,o),
(220,-25,cs)
);
},
{
closed = 1;
nodes = (
(18,5,o),
(-89,171,o),
(-89,387,cs),
(-89,604,o),
(19,770,o),
(220,770,cs),
(423,770,o),
(531,604,o),
(531,387,cs),
(531,171,o),
(423,5,o),
(220,5,cs)
);
}
);
width = 600;
}
);
metricLeft = l;
metricRight = C;
unicode = 68;
},
{
glyphname = E;
lastChange = "2021-05-04 06:19:35 +0000";
layers = (
{
layerId = m01;
shapes = (
{
closed = 1;
nodes = (
(65,800,l),
(35,800,l),
(35,-9,l),
(65,-9,l)
);
},
{
closed = 1;
nodes = (
(54,398,l),
(362,398,l),
(362,425,l),
(54,425,l)
);
},
{
closed = 1;
nodes = (
(65,773,l),
(423,773,l),
(423,800,l),
(65,800,l)
);
},
{
closed = 1;
nodes = (
(65,-9,l),
(423,-9,l),
(423,18,l),
(65,18,l)
);
}
);
width = 443;
}
);
metricLeft = l;
unicode = 69;
},
{
glyphname = F;
lastChange = "2021-05-04 06:19:33 +0000";
layers = (
{
layerId = m01;
shapes = (
{
closed = 1;
nodes = (
(65,800,l),
(35,800,l),
(35,-9,l),
(65,-9,l)
);
},
{
closed = 1;
nodes = (
(54,398,l),
(362,398,l),
(362,422,l),
(54,422,l)
);
},
{
closed = 1;
nodes = (
(65,776,l),
(423,776,l),
(423,800,l),
(65,800,l)
);
}
);
width = 443;
}
);
metricLeft = l;
unicode = 70;
},
{
glyphname = G;
lastChange = "2021-05-04 04:53:12 +0000";
layers = (
{
layerId = m01;
shapes = (
{
closed = 1;
nodes = (
(660,582,l),
(611,713,o),
(508,800,o),
(355,800,cs),
(137,800,o),
(21,619,o),
(21,387,cs),
(21,154,o),
(135,-25,o),
(355,-25,cs),
(521,-25,o),
(646,102,o),
(671,285,c),
(644,327,l),
(644,132,o),
(503,5,o),
(355,5,cs),
(153,5,o),
(55,171,o),
(55,387,cs),
(55,604,o),
(154,770,o),
(355,770,cs),
(491,770,o),
(579,696,o),
(623,582,c)
);
},
{
closed = 1;
nodes = (
(407,374,l),
(407,347,l),
(644,347,l),
(644,-9,l),
(674,-9,l),
(674,374,l)
);
}
);
width = 701;
}
);
metricLeft = C;
unicode = 71;
},
{
glyphname = H;
lastChange = "2022-02-22 19:20:00 +0000";
layers = (
{
layerId = m01;
shapes = (
{
closed = 1;
nodes = (
(65,800,l),
(35,800,l),
(35,-9,l),
(65,-9,l)
);
},
{
closed = 1;
nodes = (
(485,800,l),
(455,800,l),
(455,-9,l),
(485,-9,l)
);
},
{
closed = 1;
nodes = (
(54,397,l),
(462,397,l),
(462,424,l),
(54,424,l)
);
}
);
width = 520;
}
);
metricRight = l;
unicode = 72;
},
{
glyphname = I;
lastChange = "2021-05-04 06:19:24 +0000";
layers = (
{
layerId = m01;
shapes = (
{
closed = 1;
nodes = (
(35,800,l),
(35,-9,l),
(65,-9,l),
(65,800,l)
);
}
);
width = 100;
}
);
metricLeft = l;
metricRight = l;
unicode = 73;
},
{
glyphname = J;
lastChange = "2021-05-04 06:16:53 +0000";
layers = (
{
layerId = m01;
shapes = (
{
closed = 1;
nodes = (
(446,800,l),
(446,357,l),
(446,154,o),
(445,4,o),
(248,4,cs),
(82,4,o),
(50,114,o),
(50,237,c),
(20,237,l),
(20,91,o),
(65,-25,o),
(248,-25,cs),
(460,-25,o),
(476,131,o),
(476,357,c),
(476,800,l)
);
}
);
width = 496;
}
);
unicode = 74;
},
{
glyphname = K;
lastChange = "2021-05-04 06:19:55 +0000";
layers = (
{
layerId = m01;
shapes = (
{
closed = 1;
nodes = (
(35,800,l),
(35,-9,l),
(65,-9,l),
(65,800,l)
);
},
{
closed = 1;
nodes = (
(476,800,l),
(438,800,l),
(55,350,l),
(55,310,l)
);
},
{
closed = 1;
nodes = (
(475,-9,l),
(511,-9,l),
(209,499,l),
(190,476,l)
);
}
);
width = 546;
}
);
metricLeft = l;
unicode = 75;
},
{
glyphname = L;
lastChange = "2021-05-04 06:23:39 +0000";
layers = (
{
layerId = m01;
shapes = (
{
closed = 1;
nodes = (
(35,800,l),
(35,-9,l),
(65,-9,l),
(65,800,l)
);
},
{
closed = 1;
nodes = (
(423,-9,l),
(423,18,l),
(65,18,l),
(65,-9,l)
);
}
);
width = 443;
}
);
metricLeft = l;
unicode = 76;
},
{
glyphname = M;
lastChange = "2021-05-04 06:19:43 +0000";
layers = (
{
guides = (
{
pos = (745,733);
}
);
layerId = m01;
shapes = (
{
closed = 1;
nodes = (
(35,800,l),
(35,-9,l),
(65,-9,l),
(65,765,l),
(49,765,l),
(370,-9,l),
(392,-9,l),
(711,762,l),
(695,762,l),
(695,-9,l),
(725,-9,l),
(725,800,l),
(695,800,l),
(369,12,l),
(391,12,l),
(65,800,l)
);
}
);
width = 760;
}
);
metricLeft = l;
metricRight = l;
unicode = 77;
},
{
glyphname = N;
lastChange = "2021-05-04 06:19:49 +0000";
layers = (
{
layerId = m01;
shapes = (
{
closed = 1;
nodes = (
(35,800,l),
(35,-9,l),
(65,-9,l),
(65,780,l),
(44,780,l),
(505,-9,l),
(535,-9,l),
(535,800,l),
(505,800,l),
(505,11,l),
(526,11,l),
(65,800,l)
);
}
);
width = 570;
}
);
metricLeft = l;
metricRight = l;
unicode = 78;
},
{
glyphname = O;
lastChange = "2021-05-05 03:12:24 +0000";
layers = (
{
layerId = m01;
shapes = (
{
closed = 1;
nodes = (
(586,-25,o),
(711,154,o),
(711,387,cs),
(711,619,o),
(586,800,o),
(365,800,cs),
(147,800,o),
(21,619,o),
(21,387,cs),
(21,154,o),
(145,-25,o),
(365,-25,cs)
);
},
{
closed = 1;
nodes = (
(163,5,o),
(55,171,o),
(55,387,cs),
(55,604,o),
(164,770,o),
(365,770,cs),
(568,770,o),
(677,610,o),
(677,387,cs),
(677,171,o),
(568,5,o),
(365,5,cs)
);
}
);
width = 732;
}
);
unicode = 79;
},
{
glyphname = P;
lastChange = "2021-05-04 06:41:22 +0000";
layers = (
{
layerId = m01;
shapes = (
{
closed = 1;
nodes = (
(35,800,l),
(35,-9,l),
(65,-9,l),
(65,800,l)
);
},
{
closed = 1;
nodes = (
(60,395,l),
(296,395,l),
(465,395,o),
(514,484,o),
(514,597,cs),
(514,714,o),
(436,800,o),
(325,800,c),
(60,800,l),
(60,773,l),
(306,773,l),
(422,773,o),
(482,708,o),
(482,597,cs),
(482,509,o),
(462,422,o),
(308,422,c),
(60,422,l)
);
}
);
width = 539;
},
{
associatedMasterId = m01;
layerId = "9DD19CE0-8C5D-4CCF-AF3A-019609A20591";
name = "May 2, 21, 20:45";
shapes = (
{
closed = 1;
nodes = (
(20,800,l),
(20,-9,l),
(50,-9,l),
(50,800,l)
);
},
{
closed = 1;
nodes = (
(25,403,l),
(264,403,l),
(447,403,o),
(482,488,o),
(482,613,cs),
(482,718,o),
(420,800,o),
(293,800,c),
(25,800,l),
(25,770,l),
(274,770,l),
(390,770,o),
(449,712,o),
(449,613,cs),
(449,521,o),
(430,433,o),
(286,433,c),
(25,433,l)
);
}
);
width = 502;
},
{
associatedMasterId = m01;
layerId = "954C4EBE-16EB-4A81-A3B2-B565BE1B3C98";
name = "May 3, 21, 09:21";
shapes = (
{
closed = 1;
nodes = (
(25,800,l),
(25,-9,l),
(55,-9,l),
(55,800,l)
);
},
{
closed = 1;
nodes = (
(471,490,o),
(412,429,o),
(296,429,c),
(50,429,l),
(50,402,l),
(315,402,l),
(426,402,o),
(504,484,o),
(504,601,cs),
(504,718,o),
(426,800,o),
(315,800,c),
(50,800,l),
(50,773,l),
(296,773,l),
(412,773,o),
(471,712,o),
(471,601,cs)
);
}
);
width = 529;
}
);
metricLeft = l;
unicode = 80;
},
{
glyphname = Q;
lastChange = "2021-05-05 02:54:51 +0000";
layers = (
{
layerId = m01;
shapes = (
{
closed = 1;
nodes = (
(453,131,l),
(494,52,o),
(559,-25,o),
(721,-25,c),
(721,3,l),
(603,3,o),
(532,49,o),
(488,131,c)
);
},
{
closed = 1;
nodes = (
(586,-25,o),
(711,154,o),
(711,387,cs),
(711,619,o),
(586,800,o),
(365,800,cs),
(147,800,o),
(21,619,o),
(21,387,cs),
(21,154,o),
(145,-25,o),
(365,-25,cs)
);
},
{
closed = 1;
nodes = (
(163,5,o),
(55,171,o),
(55,387,cs),
(55,604,o),
(164,770,o),
(365,770,cs),
(568,770,o),
(677,610,o),
(677,387,cs),
(677,171,o),
(568,5,o),
(365,5,cs)
);
}
);
width = 741;
},
{
associatedMasterId = m01;
layerId = "7537FB54-6993-447B-BF47-FA5CBFCDF3C8";
name = "May 2, 21, 13:20";
shapes = (
{
closed = 1;
nodes = (
(586,-25,o),
(712,154,o),
(712,387,cs),
(712,619,o),
(586,800,o),
(365,800,cs),
(147,800,o),
(20,619,o),
(20,387,cs),
(20,154,o),
(145,-25,o),
(365,-25,cs)
);
},
{
closed = 1;
nodes = (
(163,5,o),
(56,171,o),
(56,387,cs),
(56,604,o),
(164,770,o),
(365,770,cs),
(568,770,o),
(676,604,o),
(676,387,cs),
(676,171,o),
(568,5,o),
(365,5,cs)
);
},
{
closed = 1;
nodes = (
(503,191,l),
(702,-9,l),
(743,-9,l),
(544,191,l)
);
}
);
visible = 1;
width = 763;
}
);
metricLeft = C;
metricRight = C;
unicode = 81;
},
{
glyphname = R;
lastChange = "2021-05-04 06:20:10 +0000";
layers = (
{
layerId = m01;
shapes = (
{
closed = 1;
nodes = (
(35,800,l),
(35,-9,l),
(65,-9,l),
(65,800,l)
);
},
{
closed = 1;
nodes = (
(121,397,l),
(287,397,l),
(418,397,o),
(469,346,o),
(469,151,cs),
(469,84,o),
(470,24,o),
(504,-9,c),
(540,-9,l),
(506,24,o),
(499,75,o),
(499,147,cs),
(499,285,o),
(498,419,o),
(296,419,cs),
(121,419,l)
);
},
{
closed = 1;
nodes = (
(55,397,l),
(291,397,l),
(460,397,o),
(509,485,o),
(509,598,cs),
(509,715,o),
(431,800,o),
(320,800,c),
(55,800,l),
(55,773,l),
(301,773,l),
(417,773,o),
(477,709,o),
(477,598,cs),
(477,510,o),
(457,424,o),
(303,424,c),
(55,424,l)
);
}
);
width = 565;
}
);
metricLeft = l;
unicode = 82;
},
{
glyphname = S;
lastChange = "2021-05-10 03:29:59 +0000";
layers = (
{
layerId = m01;
shapes = (
{
closed = 1;
nodes = (
(550,569,l),
(550,657,o),
(539,816,o),
(290,816,cs),
(113,816,o),
(27,711,o),
(27,587,cs),
(27,495,o),
(57,432,o),
(295,389,cs),
(508,350,o),
(571,317,o),
(571,199,cs),
(571,50,o),
(454,5,o),
(311,5,cs),
(178,5,o),
(42,69,o),
(42,216,c),
(10,216,l),
(13,91,o),
(98,-25,o),
(311,-25,cs),
(528,-25,o),
(603,71,o),
(603,199,cs),
(603,365,o),
(471,388,o),
(295,421,cs),
(96,460,o),
(59,500,o),
(59,587,cs),
(59,704,o),
(151,785,o),
(290,785,cs),
(499,785,o),
(518,665,o),
(518,569,c)
);
}
);
width = 613;
}
);
unicode = 83;
},
{
glyphname = T;
lastChange = "2021-05-02 21:54:05 +0000";
layers = (
{
layerId = m01;
shapes = (
{
closed = 1;
nodes = (
(309,800,l),
(279,800,l),
(279,-9,l),
(309,-9,l)
);
},
{
closed = 1;
nodes = (
(20,772,l),
(568,772,l),
(568,800,l),
(20,800,l)
);
}
);
width = 585;
}
);
unicode = 84;
},
{
glyphname = U;
lastChange = "2021-05-04 04:09:16 +0000";
layers = (
{
layerId = m01;
shapes = (
{
closed = 1;
nodes = (
(516,800,l),
(516,357,l),
(516,159,o),
(510,5,o),
(293,5,cs),
(77,5,o),
(70,159,o),
(70,357,c),
(70,800,l),
(40,800,l),
(40,357,l),
(40,131,o),
(60,-25,o),
(293,-25,cs),
(525,-25,o),
(546,131,o),
(546,357,c),
(546,800,l)
);
}
);
width = 586;
}
);
unicode = 85;
},
{
glyphname = V;
kernLeft = V;
kernRight = V;
lastChange = "2022-02-26 02:41:08 +0000";
layers = (
{
layerId = m01;
shapes = (
{
closed = 1;
nodes = (
(343,-9,l),
(594,800,l),
(560,800,l),
(321,15,l),
(333,15,l),
(94,800,l),
(60,800,l),
(311,-9,l)
);
}
);
width = 654;
}
);
unicode = 86;
},
{
glyphname = W;
lastChange = "2022-02-23 08:05:19 +0000";
layers = (
{
guides = (
{
pos = (895,39);
}
);
layerId = m01;
shapes = (
{
closed = 1;
nodes = (
(433,794,l),
(236,-5,l),
(258,-5,l),
(109,800,l),
(79,800,l),
(235,-9,l),
(263,-9,l),
(454,778,l),
(440,778,l),
(631,-9,l),
(659,-9,l),
(815,800,l),
(785,800,l),
(636,-5,l),
(658,-5,l),
(461,794,l)
);
}
);
width = 894;
},
{
associatedMasterId = m01;
guides = (
{
pos = (895,39);
}
);
layerId = "66A060F7-783A-41E7-AFE1-38D25BD491C4";
name = "Feb 22, 22, 11:15";
shapes = (
{
closed = 1;
nodes = (
(430,800,l),
(218,39,l),
(54,800,l),
(20,800,l),
(201,-9,l),
(233,-9,l),
(456,784,l),
(438,784,l),
(661,-9,l),
(693,-9,l),
(874,800,l),
(840,800,l),
(676,39,l),
(464,800,l)
);
}
);
width = 894;
},
{
associatedMasterId = m01;
guides = (
{
pos = (895,39);
}
);
layerId = "5210A111-D91A-4A12-BA61-1C72C5D76845";
name = "Feb 23, 22, 00:02";
shapes = (
{
closed = 1;
nodes = (
(431,800,l),
(237,-5,l),
(257,-5,l),
(89,800,l),
(55,800,l),
(231,-9,l),
(263,-9,l),
(454,784,l),
(440,784,l),
(631,-9,l),
(663,-9,l),
(839,800,l),
(805,800,l),
(637,-5,l),
(657,-5,l),
(463,800,l)
);
}
);
width = 894;
}
);
unicode = 87;
},
{
glyphname = X;
lastChange = "2021-05-04 06:41:37 +0000";
layers = (
{
layerId = m01;
shapes = (
{
closed = 1;
nodes = (
(20,-9,l),
(56,-9,l),
(526,800,l),
(490,800,l)
);
},
{
closed = 1;
nodes = (
(50,800,l),
(520,-9,l),
(556,-9,l),
(86,800,l)
);
}
);
width = 576;
}
);
unicode = 88;
},
{
glyphname = Y;
lastChange = "2021-05-03 01:58:15 +0000";
layers = (
{
layerId = m01;
shapes = (
{
closed = 1;
nodes = (
(496,800,l),
(460,800,l),
(258,402,l),
(56,800,l),
(20,800,l),
(243,371,l),
(243,-9,l),
(273,-9,l),
(273,371,l)
);
}
);
width = 516;
}
);
unicode = 89;
},
{
glyphname = Z;
lastChange = "2021-05-04 04:56:32 +0000";
layers = (
{
guides = (
{
angle = 90;
pos = (20,-9);
},
{
angle = 90;
pos = (548,-9);
}
);
layerId = m01;
shapes = (
{
closed = 1;
nodes = (
(20,-9,l),
(548,-9,l),
(548,20,l),
(51,20,l),
(51,7,l),
(528,771,l),
(528,800,l),
(50,800,l),
(50,771,l),
(504,771,l),
(504,787,l),
(20,20,l)
);
}
);
width = 568;
}
);
unicode = 90;
},
{
glyphname = a;
lastChange = "2026-06-19 22:31:56 +0000";
layers = (
{
associatedMasterId = m01;
layerId = "4E105506-5925-45C0-94B0-F88AB7A9F600";
name = "pre-flatten";
shapes = (
{
closed = 1;
nodes = (
(405,-9,l),
(404,316,l),
(404,485,o),
(312,522,o),
(220,522,cs),
(126,522,o),
(44,462,o),
(44,336,c),
(77,336,l),
(77,442,o),
(132,492,o),
(220,492,cs),
(324,492,o),
(371,435,o),
(372,316,c),
(372,-9,l)
);
},
{
closed = 1;
nodes = (
(321,-25,o),
(383,76,o),
(383,125,c),
(372,125,l),
(372,76,o),
(300,5,o),
(199,5,cs),
(95,5,o),
(49,49,o),
(49,123,cs),
(49,316,o),
(383,154,o),
(383,316,c),
(372,316,l),
(372,195,o),
(16,341,o),
(16,123,cs),
(16,41,o),
(70,-25,o),
(199,-25,cs)
);
}
);
width = 427;
},
{
associatedMasterId = m01;
layerId = "E249CD17-4796-4100-A50C-92B7B395C41C";
name = "Mar 21, 21, 11:20";
shapes = (
{
closed = 1;
nodes = (
(427,-9,l),
(426,316,l),
(426,485,o),
(332,522,o),
(234,522,cs),
(135,522,o),
(50,462,o),
(50,336,c),
(76,336,l),
(76,442,o),
(141,492,o),
(234,492,cs),
(344,492,o),
(394,435,o),
(394,316,c),
(395,-9,l)
);
},
{
closed = 1;
nodes = (
(341,-14,o),
(407,53,o),
(407,101,c),
(395,101,l),
(395,52,o),
(319,18,o),
(212,18,cs),
(122,18,o),
(52,38,o),
(52,123,cs),
(52,307,o),
(411,187,o),
(411,316,c),
(394,316,l),
(394,215,o),
(20,329,o),
(20,123,cs),
(20,29,o),
(88,-14,o),
(212,-14,cs)
);
}
);
width = 447;
},
{
associatedMasterId = m01;
layerId = "4868206E-70BF-48EC-BBAB-D016DA99EB95";
name = "slanted terminal";
shapes = (
{
closed = 1;
nodes = (
(405,-9,l),
(404,316,l),
(404,485,o),
(312,522,o),
(220,522,cs),
(126,522,o),
(45,456,o),
(45,353,c),
(77,349,l),
(77,435,o),
(132,492,o),
(220,492,cs),
(324,492,o),
(371,435,o),
(371,316,c),
(372,-9,l)
);
},
{
closed = 1;
nodes = (
(321,-25,o),
(383,76,o),
(383,125,c),
(372,125,l),
(372,76,o),
(300,5,o),
(199,5,cs),
(95,5,o),
(49,49,o),
(49,123,cs),
(49,316,o),
(381,154,o),
(381,316,c),
(371,316,l),
(371,195,o),
(16,341,o),
(16,123,cs),
(16,41,o),
(70,-25,o),
(199,-25,cs)
);
}
);
width = 427;
},
{
associatedMasterId = m01;
layerId = "D936161A-3C8B-4C40-ABC9-C912CE3BF7F9";
name = "flat terminal";
shapes = (
{
closed = 1;
nodes = (
(405,-9,l),
(404,316,l),
(404,485,o),
(312,522,o),
(220,522,cs),
(126,522,o),
(44,462,o),
(44,336,c),
(77,336,l),
(77,442,o),
(132,492,o),
(220,492,cs),
(324,492,o),
(371,435,o),
(371,316,c),
(372,-9,l)
);
},
{
closed = 1;
nodes = (
(321,-25,o),
(383,76,o),
(383,125,c),
(372,125,l),
(372,76,o),
(300,5,o),
(199,5,cs),
(95,5,o),
(49,49,o),
(49,123,cs),
(49,316,o),
(381,154,o),
(381,316,c),
(371,316,l),
(371,195,o),
(16,341,o),
(16,123,cs),
(16,41,o),
(70,-25,o),
(199,-25,cs)
);
}
);
width = 427;
},
{
associatedMasterId = m01;
layerId = "55175CD9-C9A5-4EB7-91F4-E1BF18CD3E0F";
name = "May 1, 21, 12:50";
shapes = (
{
closed = 1;
nodes = (
(401,-9,l),
(401,316,l),
(401,485,o),
(312,522,o),
(220,522,cs),
(126,522,o),
(41,462,o),
(41,336,c),
(71,336,l),
(71,442,o),
(132,492,o),
(220,492,cs),
(330,492,o),
(371,435,o),
(371,316,c),
(371,-9,l)
);
},
{
closed = 1;
nodes = (
(321,-25,o),
(383,76,o),
(383,125,c),
(371,125,l),
(371,76,o),
(300,5,o),
(199,5,cs),
(95,5,o),
(49,49,o),
(49,123,cs),
(49,316,o),
(381,154,o),
(381,316,c),
(371,316,l),
(371,195,o),
(16,341,o),
(16,123,cs),
(16,41,o),
(70,-25,o),
(199,-25,cs)
);
}
);
width = 427;
},
{
layerId = m01;
name = Regular;
shapes = (
{
closed = 1;
nodes = (
(401,-9,l),
(401,353,l),
(401,485,o),
(312,522,o),
(230,522,cs),
(126,522,o),
(41,462,o),
(41,336,c),
(71,336,l),
(71,442,o),
(132,492,o),
(228,492,cs),
(330,492,o),
(371,435,o),
(371,361,c),
(371,203,o),
(18,344,o),
(18,126,cs),
(18,44,o),
(70,-22,o),
(199,-22,cs),
(290,-22,o),
(346,24,o),
(371,78,c),
(371,-9,l)
);
},
{
closed = 1;
nodes = (
(48,312,o),
(358,185,o),
(380,329,c),
(373,349,l),
(373,275,o),
(373,201,o),
(373,136,c),
(373,87,o),
(310,8,o),
(199,8,cs),
(95,8,o),
(48,52,o),
(48,126,cs)
);
}
);
width = 424;
}
);
metricRight = n;
unicode = 97;
},
{
glyphname = b;
lastChange = "2026-06-19 20:26:15 +0000";
layers = (
{
layerId = m01;
shapes = (
{
closed = 1;
nodes = (
(66,-9,l),
(65,784,l),
(35,784,l),
(36,-9,l)
);
},
{
closed = 1;
nodes = (
(424,104,o),
(360,5,o),
(231,5,cs),
(169,5,o),
(66,61,o),
(66,169,c),
(54,169,l),
(54,14,o),
(172,-25,o),
(231,-25,cs),
(377,-25,o),
(457,87,o),
(457,249,cs),
(457,409,o),
(377,522,o),
(231,522,cs),
(162,522,o),
(53,478,o),
(53,342,c),
(65,342,l),
(65,450,o),
(169,492,o),
(231,492,cs),
(360,492,o),
(424,393,o),
(424,249,cs)
);
}
);
width = 482;
},
{
associatedMasterId = m01;
layerId = "D18E95CF-AEE4-4F40-8C69-498A6C2DBEB6";
name = " Mar 20, 21, 19:48";
shapes = (
{
closed = 1;
nodes = (
(52,-9,l),
(51,89,l),
(83,0,o),
(169,-25,o),
(216,-25,cs),
(362,-25,o),
(442,87,o),
(442,248,cs),
(442,409,o),
(362,522,o),
(216,522,cs),
(162,522,o),
(82,495,o),
(50,417,c),
(50,784,l),
(19,784,l),
(21,-9,l)
);
},
{
closed = 1;
nodes = (
(49,453,o),
(157,492,o),
(216,492,cs),
(345,492,o),
(409,393,o),
(409,249,cs),
(409,104,o),
(345,5,o),
(216,5,cs),
(154,5,o),
(49,61,o),
(49,169,c),
(49,344,ls)
);
}
);
visible = 1;
width = 459;
}
);
metricLeft = l;
metricRight = o;
unicode = 98;
},
{
glyphname = c;
lastChange = "2021-05-06 20:24:36 +0000";
layers = (
{
layerId = m01;
shapes = (
{
closed = 1;
nodes = (
(438,355,l),
(438,481,o),
(340,521,o),
(258,521,cs),
(108,521,o),
(25,402,o),
(25,248,cs),
(25,248,o),
(25,248,o),
(25,248,cs),
(58,248,ls),
(58,248,o),
(58,248,o),
(58,248,cs),
(58,385,o),
(125,491,o),
(258,491,cs),
(322,491,o),
(408,464,o),
(408,355,c)
);
},
{
closed = 1;
nodes = (
(408,133,l),
(408,80,o),
(356,6,o),
(258,6,cs),
(115,6,o),
(58,121,o),
(58,248,cs),
(58,248,o),
(58,248,o),
(58,248,cs),
(25,248,ls),
(25,248,o),
(25,248,o),
(25,248,cs),
(25,104,o),
(98,-24,o),
(258,-24,cs),
(362,-24,o),
(438,48,o),
(438,133,c)
);
}
);
width = 458;
},
{
associatedMasterId = m01;
layerId = "9ECEAA05-1826-4BCB-BF58-996C31AC6778";
name = "Mar 22, 21, 22:40";
shapes = (
{
closed = 1;
nodes = (
(533,142,l),
(533,296,o),
(439,416,o),
(293,416,cs),
(148,416,o),
(54,296,o),
(54,142,c),
(87,142,l),
(87,280,o),
(165,386,o),
(293,386,cs),
(422,386,o),
(500,280,o),
(500,142,c)
);
}
);
width = 600;
}
);
metricLeft = o;
unicode = 99;
},
{
glyphname = d;
lastChange = "2021-05-21 18:36:12 +0000";
layers = (
{
layerId = m01;
shapes = (
{
closed = 1;
nodes = (
(416,800,l),
(416,404,l),
(385,496,o),
(299,522,o),
(251,522,cs),
(105,522,o),
(26,410,o),
(26,249,cs),
(26,88,o),
(105,-25,o),
(251,-25,cs),
(306,-25,o),
(387,3,o),
(417,83,c),
(417,-9,l),
(447,-9,l),
(446,800,l)
);
},
{
closed = 1;
nodes = (
(58,393,o),
(122,492,o),
(251,492,cs),
(313,492,o),
(419,436,o),
(419,328,c),
(420,147,l),
(415,45,o),
(311,5,o),
(251,5,cs),
(122,5,o),
(58,104,o),
(58,249,cs)
);
}
);
width = 482;
},
{
associatedMasterId = m01;
layerId = "0F3E51D5-9F9D-4AFD-BABB-835E3653CBA4";
name = "May 1, 21, 12:50";
shapes = (
{
closed = 1;
nodes = (
(408,800,l),
(409,-9,l),
(439,-9,l),
(438,800,l)
);
},
{
closed = 1;
nodes = (
(50,393,o),
(114,492,o),
(243,492,cs),
(305,492,o),
(408,436,o),
(408,328,c),
(420,328,l),
(420,483,o),
(302,522,o),
(243,522,cs),
(97,522,o),
(17,410,o),
(17,249,cs),
(17,88,o),
(97,-25,o),
(243,-25,cs),
(312,-25,o),
(421,19,o),
(421,155,c),
(409,155,l),
(409,47,o),
(305,5,o),
(243,5,cs),
(114,5,o),
(50,104,o),
(50,249,cs)
);
}
);
width = 459;
}
);
metricLeft = o;
metricRight = l;
unicode = 100;
},
{
glyphname = e;
lastChange = "2022-02-22 07:18:28 +0000";
layers = (
{
guides = (
{
angle = 90;
pos = (450,239);
}
);
layerId = m01;
shapes = (
{
closed = 1;
nodes = (
(365,490,o),
(417,398,o),
(417,275,c),
(62,275,l),
(62,398,o),
(123,490,o),
(244,490,cs)
);
},
{
closed = 1;
nodes = (
(30,94,o),
(98,-25,o),
(252,-25,cs),
(369,-25,o),
(444,61,o),
(447,156,c),
(415,156,l),
(412,79,o),
(352,5,o),
(252,5,cs),
(115,5,o),
(62,111,o),
(62,247,c),
(449,247,l),
(449,402,o),
(390,520,o),
(244,520,cs),
(98,520,o),
(30,402,o),
(30,247,cs)
);
}
);
width = 475;
},
{
associatedMasterId = m01;
layerId = "ACC8F2A7-F350-40D9-9216-E8AB46180825";
name = "Apr 28, 21, 19:56";
shapes = (
{
closed = 1;
nodes = (
(240,521,l),
(240,521,o),
(240,521,o),
(240,521,cs),
(94,521,o),
(21,402,o),
(21,248,cs),
(21,248,o),
(21,248,o),
(21,248,cs),
(54,248,ls),
(54,248,o),
(54,248,o),
(54,248,cs),
(54,385,o),
(111,491,o),
(240,491,cs),
(240,491,o),
(240,491,o),
(240,491,c)
);
},
{
closed = 1;
nodes = (
(404,128,l),
(373,54,o),
(327,5,o),
(240,5,cs),
(111,5,o),
(54,111,o),
(54,248,cs),
(54,248,o),
(54,248,o),
(54,248,cs),
(21,248,ls),
(21,248,o),
(21,248,o),
(21,248,cs),
(21,94,o),
(94,-25,o),
(240,-25,cs),
(340,-25,o),
(398,32,o),
(434,116,c)
);
},
{
closed = 1;
nodes = (
(240,491,o),
(240,491,o),
(240,491,cs),
(369,491,o),
(416,385,o),
(416,248,cs),
(416,248,o),
(416,248,o),
(416,248,cs),
(449,248,ls),
(449,248,o),
(449,248,o),
(449,248,cs),
(449,402,o),
(386,521,o),
(240,521,cs),
(240,521,o),
(240,521,o),
(240,521,c),
(240,491,l)
);
},
{
closed = 1;
nodes = (
(50,248,l),
(427,248,l),
(427,278,l),
(50,278,l)
);
}
);
width = 480;
},
{
associatedMasterId = m01;
layerId = "DCE5812E-DDF5-4205-9D63-BB2E731F6762";
name = "May 21, 21, 10:46";
shapes = (
{
closed = 1;
nodes = (
(240,520,l),
(240,520,o),
(240,520,o),
(240,520,cs),
(94,520,o),
(25,402,o),
(25,248,cs),
(25,248,o),
(25,248,o),
(25,248,cs),
(58,248,ls),
(58,248,o),
(58,248,o),
(58,248,cs),
(58,385,o),
(111,492,o),
(240,492,cs),
(240,492,o),
(240,492,o),
(240,492,c)
);
},
{
closed = 1;
nodes = (
(406,122,l),
(406,72,o),
(337,5,o),
(246,5,cs),
(111,5,o),
(58,111,o),
(58,248,cs),
(58,248,o),
(58,248,o),
(58,248,cs),
(25,248,ls),
(25,248,o),
(25,248,o),
(25,248,cs),
(25,94,o),
(94,-25,o),
(246,-25,cs),
(350,-25,o),
(436,51,o),
(436,122,c)
);
},
{
closed = 1;
nodes = (
(240,492,o),
(240,492,o),
(240,492,cs),
(369,492,o),
(413,385,o),
(413,248,cs),
(413,248,o),
(413,248,o),
(413,248,cs),
(446,248,ls),
(446,248,o),
(446,248,o),
(446,248,cs),
(446,402,o),
(386,520,o),
(240,520,cs),
(240,520,o),
(240,520,o),
(240,520,c),
(240,492,l)
);
},
{
closed = 1;
nodes = (
(45,248,l),
(423,248,l),
(423,274,l),
(45,274,l)
);
}
);
width = 471;
},
{
associatedMasterId = m01;
layerId = "3C697AAF-04B8-46F1-B42A-B86FFE413EA4";
name = "May 21, 21, 10:55";
shapes = (
{
closed = 1;
nodes = (
(467,94,o),
(398,-25,o),
(246,-25,c),
(246,5,l),
(381,5,o),
(434,111,o),
(434,248,c),
(467,248,l)
);
}
);
width = 471;
}
);
metricRight = o;
unicode = 101;
},
{
glyphname = f;
kernLeft = f;
kernRight = o;
lastChange = "2021-05-05 00:25:43 +0000";
layers = (
{
associatedMasterId = m01;
layerId = "B6EB9F96-2185-424C-BD8A-109D7D0D3A11";
name = "Apr 29, 21, 23:35";
shapes = (
{
closed = 1;
nodes = (
(139,-9,l),
(138,714,l),
(108,714,l),
(109,-9,l)
);
},
{
closed = 1;
nodes = (
(307,479,l),
(307,506,l),
(20,506,l),
(20,479,l)
);
},
{
closed = 1;
nodes = (
(138,714,l),
(138,728,o),
(140,789,o),
(206,789,cs),
(263,789,o),
(278,747,o),
(278,729,c),
(305,729,l),
(305,747,o),
(295,816,o),
(204,816,cs),
(129,816,o),
(108,762,o),
(108,714,c)
);
}
);
width = 327;
},
{
associatedMasterId = m01;
layerId = "311C9FD3-28E9-47B6-9CFE-639DB9368766";
name = "May 1, 21, 00:40";
shapes = (
{
closed = 1;
nodes = (
(119,-9,l),
(116,525,l),
(73,482,l),
(281,480,l),
(281,506,l),
(73,504,l),
(116,461,l),
(118,687,ls),
(119,787,o),
(189,792,o),
(208,792,cs),
(242,792,o),
(268,776,o),
(296,758,c),
(296,786,l),
(269,802,o),
(243,816,o),
(208,816,cs),
(185,816,o),
(87,810,o),
(88,690,cs),
(89,461,l),
(133,504,l),
(10,506,l),
(10,480,l),
(133,482,l),
(89,525,l),
(89,-9,l)
);
}
);
width = 306;
},
{
layerId = m01;
name = Regular;
shapes = (
{
closed = 1;
nodes = (
(119,-9,l),
(118,687,l),
(88,690,l),
(89,-9,l)
);
},
{
closed = 1;
nodes = (
(281,479,l),
(281,506,l),
(10,506,l),
(10,479,l)
);
},
{
closed = 1;
nodes = (
(269,802,o),
(243,816,o),
(208,816,cs),
(185,816,o),
(88,810,o),
(88,690,c),
(118,687,l),
(116,787,o),
(189,792,o),
(208,792,cs),
(242,792,o),
(268,776,o),
(296,758,c),
(296,786,l)
);
}
);
width = 306;
}
);
unicode = 102;
},
{
glyphname = g;
lastChange = "2026-06-19 22:23:37 +0000";
layers = (
{
layerId = m01;
shapes = (
{
closed = 1;
nodes = (
(58,393,o),
(122,492,o),
(251,492,cs),
(313,492,o),
(418,452,o),
(418,344,c),
(418,175,l),
(418,67,o),
(313,15,o),
(251,15,cs),
(122,15,o),
(58,104,o),
(58,248,cs)
);
},
{
closed = 1;
nodes = (
(26,88,o),
(105,-14,o),
(251,-14,cs),
(306,-14,o),
(386,20,o),
(416,103,c),
(416,-10,ls),
(416,-129,o),
(361,-186,o),
(250,-186,cs),
(151,-186,o),
(73,-136,o),
(73,-30,c),
(40,-30,l),
(40,-156,o),
(136,-216,o),
(250,-216,cs),
(342,-216,o),
(446,-179,o),
(446,-10,cs),
(446,506,l),
(416,506,l),
(416,420,l),
(384,507,o),
(299,522,o),
(251,522,cs),
(105,522,o),
(26,410,o),
(26,249,cs)
);
}
);
width = 481;
},
{
associatedMasterId = m01;
layerId = "B5C953AC-7BBC-4BF7-BE7C-6E8293531517";
name = "pre-flatten";
shapes = (
{
closed = 1;
nodes = (
(50,393,o),
(114,492,o),
(243,492,cs),
(305,492,o),
(408,452,o),
(408,344,c),
(420,344,l),
(420,499,o),
(302,522,o),
(243,522,cs),
(97,522,o),
(17,410,o),
(17,249,cs),
(17,88,o),
(97,-14,o),
(243,-14,cs),
(312,-14,o),
(420,39,o),
(420,175,c),
(408,175,l),
(408,67,o),
(305,15,o),
(243,15,cs),
(114,15,o),
(50,104,o),
(50,248,cs)
);
},
{
closed = 1;
nodes = (
(408,-10,l),
(408,-129,o),
(353,-186,o),
(242,-186,cs),
(143,-186,o),
(65,-136,o),
(65,-30,c),
(32,-30,l),
(32,-156,o),
(128,-216,o),
(242,-216,cs),
(334,-216,o),
(441,-179,o),
(441,-10,c),
(441,506,l),
(408,506,l)
);
}
);
width = 462;
}
);
metricLeft = o;
metricRight = l;
unicode = 103;
},
{
glyphname = h;
lastChange = "2021-05-05 23:07:20 +0000";
layers = (
{
layerId = m01;
shapes = (
{
closed = 1;
nodes = (
(396,-9,l),
(395,316,l),
(395,485,o),
(311,522,o),
(224,522,cs),
(137,522,o),
(53,452,o),
(53,326,c),
(65,326,l),
(65,432,o),
(150,492,o),
(224,492,cs),
(321,492,o),
(365,435,o),
(365,316,c),
(366,-9,l)
);
},
{
closed = 1;
nodes = (
(65,-9,l),
(65,800,l),
(35,800,l),
(35,-9,l)
);
}
);
width = 419;
}
);
metricLeft = n;
metricRight = n;
unicode = 104;
},
{
glyphname = i;
lastChange = "2021-05-21 18:44:59 +0000";
layers = (
{
layerId = m01;
shapes = (
{
closed = 1;
nodes = (
(68,-9,l),
(68,506,l),
(38,506,l),
(38,-9,l)
);
},
{
closed = 1;
nodes = (
(63,578,o),
(70,585,o),
(70,596,cs),
(70,606,o),
(63,613,o),
(53,613,cs),
(42,613,o),
(35,606,o),
(35,596,cs),
(35,585,o),
(42,578,o),
(53,578,cs)
);
}
);
width = 105;
}
);
metricLeft = l;
metricRight = l;
unicode = 105;
},
{
glyphname = j;
lastChange = "2022-02-26 02:44:59 +0000";
layers = (
{
associatedMasterId = m01;
layerId = "88EFBC90-5C8C-4835-8F40-6C65B11469B8";
name = "Apr 29, 21, 23:38";
shapes = (
{
closed = 1;
nodes = (
(188,506,l),
(189,-114,l),
(219,-114,l),
(218,506,l)
);
},
{
closed = 1;
nodes = (
(189,-114,l),
(189,-128,o),
(187,-189,o),
(121,-189,cs),
(64,-189,o),
(49,-147,o),
(49,-129,c),
(22,-129,l),
(22,-147,o),
(32,-216,o),
(123,-216,cs),
(198,-216,o),
(219,-162,o),
(219,-114,c)
);
},
{
closed = 1;
nodes = (
(212,578,o),
(219,585,o),
(219,596,cs),
(219,606,o),
(212,613,o),
(202,613,cs),
(191,613,o),
(184,606,o),
(184,596,cs),
(184,585,o),
(191,578,o),
(202,578,cs)
);
}
);
width = 241;
},
{
layerId = m01;
name = Regular;
shapes = (
{
closed = 1;
nodes = (
(217,574,o),
(225,582,o),
(225,596,cs),
(225,609,o),
(217,617,o),
(204,617,cs),
(190,617,o),
(182,609,o),
(182,596,cs),
(182,582,o),
(190,574,o),
(204,574,cs)
);
},
{
closed = 1;
nodes = (
(187,506,l),
(188,-87,l),
(218,-90,l),
(217,506,l)
);
},
{
closed = 1;
nodes = (
(37,-202,o),
(63,-216,o),
(98,-216,cs),
(121,-216,o),
(218,-210,o),
(218,-90,c),
(188,-87,l),
(190,-187,o),
(117,-192,o),
(98,-192,cs),
(64,-192,o),
(38,-176,o),
(10,-158,c),
(10,-186,l)
);
}
);
width = 271;
},
{
associatedMasterId = m01;
layerId = "37C08F2D-597D-4D54-BA69-C42ADFD28C36";
name = "rounded dot";
shapes = (
{
closed = 1;
nodes = (
(185,506,l),
(186,-87,l),
(216,-90,l),
(215,506,l)
);
},
{
closed = 1;
nodes = (
(35,-202,o),
(61,-216,o),
(96,-216,cs),
(119,-216,o),
(216,-210,o),
(216,-90,c),
(186,-87,l),
(188,-187,o),
(115,-192,o),
(96,-192,cs),
(62,-192,o),
(36,-176,o),
(8,-158,c),
(8,-186,l)
);
},
{
closed = 1;
nodes = (
(217,561,o),
(215,559,o),
(215,576,cs),
(215,594,o),
(217,592,o),
(200,592,cs),
(183,592,o),
(185,594,o),
(185,576,cs),
(185,559,o),
(183,561,o),
(200,561,cs)
);
}
);
width = 241;
},
{
associatedMasterId = m01;
layerId = "8D77E282-3E94-413D-A93B-D8854B4B1C30";
name = "Apr 30, 21, 09:54";
shapes = (
{
closed = 1;
nodes = (
(185,506,l),
(186,-87,l),
(216,-90,l),
(215,506,l)
);
},
{
closed = 1;
nodes = (
(35,-202,o),
(61,-216,o),
(96,-216,cs),
(119,-216,o),
(216,-210,o),
(216,-90,c),
(186,-87,l),
(188,-187,o),
(115,-192,o),
(96,-192,cs),
(62,-192,o),
(36,-176,o),
(8,-158,c),
(8,-186,l)
);
},
{
closed = 1;
nodes = (
(208,560,o),
(215,567,o),
(215,576,cs),
(215,585,o),
(208,592,o),
(199,592,cs),
(190,592,o),
(183,585,o),
(183,576,cs),
(183,567,o),
(190,560,o),
(199,560,cs)
);
}
);
width = 241;
}
);
unicode = 106;
},
{
glyphname = k;
lastChange = "2021-05-05 03:04:25 +0000";
layers = (
{
layerId = m01;
shapes = (
{
closed = 1;
nodes = (
(389,-9,l),
(181,325,l),
(367,506,l),
(327,506,l),
(49,238,l),
(65,235,l),
(65,800,l),
(35,800,l),
(35,-9,l),
(65,-9,l),
(65,224,l),
(50,200,l),
(159,303,l),
(353,-9,l)
);
}
);
width = 399;
},
{
associatedMasterId = m01;
layerId = "77D13906-9E56-4C7D-B263-355158068B17";
name = "Mar 21, 21, 19:11";
shapes = (
{
closed = 1;
nodes = (
(47,-9,l),
(47,800,l),
(16,800,l),
(16,-9,l)
);
},
{
closed = 1;
nodes = (
(89,397,l),
(348,-9,l),
(383,-9,l),
(115,411,l),
(115,411,l)
);
},
{
closed = 1;
nodes = (
(307,651,l),
(32,301,l),
(47,271,l),
(341,651,l)
);
}
);
width = 420;
},
{
associatedMasterId = m01;
layerId = "12014B6B-C373-40E2-9CEA-8EF688BD3922";
name = "May 1, 21, 15:19";
shapes = (
{
closed = 1;
nodes = (
(369,-9,l),
(144,328,l),
(123,307,l),
(336,-9,l)
);
},
{
closed = 1;
nodes = (
(51,-9,l),
(51,800,l),
(20,800,l),
(20,-9,l)
);
},
{
closed = 1;
nodes = (
(354,506,l),
(318,506,l),
(36,241,l),
(51,211,l)
);
}
);
width = 389;
},
{
associatedMasterId = m01;
layerId = "65EBF89D-2EBF-4DF1-9ECD-75A6FD55D74E";
name = "May 1, 21, 16:31";
shapes = (
{
closed = 1;
nodes = (
(51,800,l),
(21,800,l),
(21,-9,l),
(51,-9,l)
);
},
{
closed = 1;
nodes = (
(31,183,l),
(318,506,l),
(284,506,l),
(31,226,l)
);
},
{
closed = 1;
nodes = (
(107,275,l),
(324,-9,l),
(358,-9,l),
(125,296,l)
);
}
);
width = 389;
}
);
metricLeft = l;
unicode = 107;
},
{
glyphname = l;
lastChange = "2026-06-23 00:54:19 +0000";
layers = (
{
layerId = m01;
shapes = (
{
closed = 1;
nodes = (
(66,-9,l),
(65,800,l),
(35,800,l),
(36,-9,l)
);
}
);
width = 101;
}
);
unicode = 108;
},
{
glyphname = m;
lastChange = "2022-02-22 07:13:20 +0000";
layers = (
{
layerId = m01;
shapes = (
{
closed = 1;
nodes = (
(89,-9,l),
(89,506,l),
(59,506,l),
(59,-9,l)
);
},
{
closed = 1;
nodes = (
(401,-9,l),
(400,316,l),
(400,485,o),
(314,522,o),
(248,522,cs),
(161,522,o),
(77,452,o),
(77,326,c),
(89,326,l),
(89,432,o),
(174,492,o),
(248,492,cs),
(336,492,o),
(369,415,o),
(369,316,c),
(370,-9,l)
);
},
{
closed = 1;
nodes = (
(712,-9,l),
(711,316,l),
(711,485,o),
(625,522,o),
(559,522,cs),
(472,522,o),
(388,452,o),
(388,326,c),
(400,326,l),
(400,432,o),
(485,492,o),
(559,492,cs),
(647,492,o),
(680,415,o),
(680,316,c),
(681,-9,l)
);
}
);
width = 762;
}
);
unicode = 109;
},
{
glyphname = n;
lastChange = "2026-06-23 01:21:11 +0000";
layers = (
{
layerId = m01;
shapes = (
{
closed = 1;
nodes = (
(396,-9,l),
(395,316,l),
(395,489,o),
(290,522,o),
(229,522,cs),
(139,522,o),
(53,452,o),
(53,326,c),
(65,316,l),
(65,422,o),
(144,492,o),
(228,492,cs),
(288,492,o),
(365,458,o),
(365,316,c),
(366,-9,l)
);
},
{
closed = 1;
nodes = (
(65,-9,l),
(65,506,l),
(35,506,l),
(35,-9,l)
);
}
);
width = 419;
},
{
associatedMasterId = m01;
layerId = "EA9DF00A-3098-452C-BEA2-26F2BF5CC325";
name = "less contrast";
shapes = (
{
closed = 1;
nodes = (
(396,-9,l),
(395,316,l),
(395,489,o),
(290,522,o),
(229,522,cs),
(139,522,o),
(53,452,o),
(53,326,c),
(65,316,l),
(65,422,o),
(144,492,o),
(228,492,cs),
(288,492,o),
(365,458,o),
(365,316,c),
(366,-9,l)
);
},
{
closed = 1;
nodes = (
(65,-9,l),
(65,506,l),
(35,506,l),
(35,-9,l)
);
}
);
visible = 1;
width = 419;
},
{
associatedMasterId = m01;
layerId = "D0F347ED-5935-4F58-B177-77D42078866D";
name = old;
shapes = (
{
closed = 1;
nodes = (
(396,-9,l),
(395,316,l),
(395,491,o),
(292,522,o),
(229,522,cs),
(139,522,o),
(53,452,o),
(53,326,c),
(65,326,l),
(65,432,o),
(155,492,o),
(229,492,cs),
(288,492,o),
(365,458,o),
(365,316,c),
(366,-9,l)
);
},
{
closed = 1;
nodes = (
(65,-9,l),
(65,506,l),
(35,506,l),
(35,-9,l)
);
}
);
visible = 1;
width = 419;
}
);
metricLeft = l;
unicode = 110;
},
{
glyphname = o;
lastChange = "2021-05-21 18:36:41 +0000";
layers = (
{
layerId = m01;
shapes = (
{
closed = 1;
nodes = (
(410,-25,o),
(503,94,o),
(503,248,cs),
(503,402,o),
(410,522,o),
(264,522,cs),
(119,522,o),
(26,402,o),
(26,248,cs),
(26,94,o),
(118,-25,o),
(264,-25,cs)
);
},
{
closed = 1;
nodes = (
(135,5,o),
(58,111,o),
(58,248,cs),
(58,386,o),
(136,492,o),
(264,492,cs),
(393,492,o),
(471,386,o),
(471,248,cs),
(471,111,o),
(393,5,o),
(264,5,cs)
);
}
);
width = 529;
}
);
unicode = 111;
},
{
glyphname = p;
lastChange = "2021-05-21 18:36:59 +0000";
layers = (
{
layerId = m01;
shapes = (
{
closed = 1;
nodes = (
(66,-200,l),
(65,506,l),
(35,506,l),
(36,-200,l)
);
},
{
closed = 1;
nodes = (
(424,104,o),
(360,5,o),
(231,5,cs),
(169,5,o),
(66,61,o),
(66,169,c),
(54,169,l),
(54,14,o),
(172,-25,o),
(231,-25,cs),
(377,-25,o),
(456,87,o),
(456,249,cs),
(456,409,o),
(377,522,o),
(231,522,cs),
(162,522,o),
(53,478,o),
(53,342,c),
(65,342,l),
(65,450,o),
(169,492,o),
(231,492,cs),
(360,492,o),
(424,393,o),
(424,249,cs)
);
}
);
width = 482;
}
);
metricLeft = n;
metricRight = o;
unicode = 112;
},
{
glyphname = q;
lastChange = "2021-05-05 03:09:06 +0000";
layers = (
{
layerId = m01;
shapes = (
{
closed = 1;
nodes = (
(416,506,l),
(417,-200,l),
(447,-200,l),
(446,506,l)
);
},
{
closed = 1;
nodes = (
(58,393,o),
(122,492,o),
(251,492,cs),
(313,492,o),
(416,436,o),
(416,328,c),
(428,328,l),
(428,483,o),
(310,522,o),
(251,522,cs),
(105,522,o),
(25,410,o),
(25,249,cs),
(25,88,o),
(105,-25,o),
(251,-25,cs),
(320,-25,o),
(429,19,o),
(429,155,c),
(417,155,l),
(417,47,o),
(313,5,o),
(251,5,cs),
(122,5,o),
(58,104,o),
(58,249,cs)
);
}
);
width = 472;
}
);
metricLeft = o;
unicode = 113;
},
{
glyphname = r;
kernRight = o;
lastChange = "2021-05-05 23:07:16 +0000";
layers = (
{
layerId = m01;
shapes = (
{
closed = 1;
nodes = (
(224,522,l),
(224,522,o),
(224,522,o),
(224,522,cs),
(224,522,o),
(224,522,o),
(224,522,cs),
(137,522,o),
(53,452,o),
(53,326,c),
(65,326,l),
(65,432,o),
(150,492,o),
(224,492,cs),
(224,492,o),
(224,492,o),
(224,492,cs),
(224,492,o),
(224,492,o),
(224,492,c)
);
},
{
closed = 1;
nodes = (
(65,-9,l),
(65,506,l),
(35,506,l),
(35,-9,l)
);
}
);
width = 239;
}
);
metricLeft = n;
unicode = 114;
},
{
glyphname = s;
lastChange = "2026-06-23 04:34:11 +0000";
layers = (
{
associatedMasterId = m01;
layerId = "06AE22B3-882D-4966-BF02-87CD76903C4A";
name = "May 6, 21, 13:23";
shapes = (
{
closed = 1;
nodes = (
(362,373,l),
(362,431,o),
(339,522,o),
(193,522,cs),
(38,522,o),
(8,431,o),
(8,373,cs),
(8,320,o),
(30,255,o),
(193,243,cs),
(326,233,o),
(353,183,o),
(353,122,cs),
(353,33,o),
(293,5,o),
(193,5,cs),
(100,5,o),
(33,33,o),
(33,122,c),
(0,122,l),
(0,38,o),
(52,-25,o),
(193,-25,cs),
(341,-25,o),
(386,38,o),
(386,122,cs),
(386,229,o),
(292,264,o),
(193,273,cs),
(64,285,o),
(41,333,o),
(41,373,cs),
(41,425,o),
(74,494,o),
(193,494,cs),
(303,494,o),
(329,425,o),
(329,373,c)
);
}
);
width = 386;
},
{
guides = (
{
orientation = right;
pos = (-811,373);
showMeasurement = 1;
},
{
orientation = right;
pos = (-811,122);
showMeasurement = 1;
}
);
layerId = m01;
name = Regular;
shapes = (
{
closed = 1;
nodes = (
(380,361,l),
(380,419,o),
(372,522,o),
(211,522,cs),
(96,522,o),
(28,454,o),
(28,373,cs),
(28,313,o),
(59,269,o),
(214,241,cs),
(352,216,o),
(370,183,o),
(370,122,cs),
(370,33,o),
(303,3,o),
(211,3,cs),
(145,3,o),
(47,39,o),
(47,133,c),
(17,133,l),
(17,51,o),
(81,-25,o),
(211,-25,cs),
(351,-25,o),
(400,38,o),
(400,122,cs),
(400,229,o),
(328,248,o),
(214,270,cs),
(81,296,o),
(58,332,o),
(58,373,cs),
(58,449,o),
(128,494,o),
(211,494,cs),
(336,494,o),
(350,413,o),
(350,361,c)
);
}
);
width = 415;
},
{
associatedMasterId = m01;
layerId = "9A245A16-B457-453F-9FDB-34C70C26E9BC";
name = "Jun 22, 26 at 18:29";
shapes = (
{
closed = 1;
nodes = (
(366,358,l),
(366,419,o),
(358,522,o),
(197,522,cs),
(82,522,o),
(26,454,o),
(26,373,cs),
(26,313,o),
(50,267,o),
(200,240,cs),
(338,215,o),
(370,183,o),
(370,122,cs),
(370,33,o),
(303,5,o),
(211,5,cs),
(81,5,o),
(46,72,o),
(46,150,c),
(16,150,l),
(16,77,o),
(44,-25,o),
(211,-25,cs),
(351,-25,o),
(400,38,o),
(400,122,cs),
(400,226,o),
(314,249,o),
(200,271,cs),
(64,297,o),
(56,333,o),
(56,373,cs),
(56,449,o),
(114,494,o),
(197,494,cs),
(322,494,o),
(336,413,o),
(336,358,c)
);
}
);
visible = 1;
width = 415;
}
);
unicode = 115;
},
{
glyphname = t;
lastChange = "2026-06-23 00:53:14 +0000";
layers = (
{
associatedMasterId = m01;
layerId = "A4756637-1799-47B4-B4D2-60BA98037C7A";
name = "straight terminal";
shapes = (
{
closed = 1;
nodes = (
(170,-9,l),
(169,784,l),
(139,784,l),
(140,-9,l)
);
},
{
closed = 1;
nodes = (
(298,479,l),
(298,506,l),
(11,506,l),
(11,479,l)
);
}
);
width = 309;
},
{
associatedMasterId = m01;
layerId = "8B5B9A1C-CE87-47C4-8553-14CA8FF60EBB";
name = "Mar 26, 21, 14:41";
shapes = (
{
closed = 1;
nodes = (
(134,93,l),
(164,93,l),
(165,766,l),
(135,766,l)
);
},
{
closed = 1;
nodes = (
(17,479,l),
(304,479,l),
(304,506,l),
(17,506,l)
);
},
{
closed = 1;
nodes = (
(134,45,o),
(155,-9,o),
(230,-9,cs),
(321,-9,o),
(331,60,o),
(331,78,c),
(304,78,l),
(304,60,o),
(289,18,o),
(232,18,cs),
(166,18,o),
(164,79,o),
(164,93,c),
(134,93,l)
);
}
);
width = 348;
},
{
associatedMasterId = m01;
layerId = "803E7275-3678-4AF2-9066-528971A982F4";
name = "Mar 26, 21, 14:50";
shapes = (
{
closed = 1;
nodes = (
(134.695,560.624,l),
(135,510,o),
(132,506,o),
(45,506,cs),
(44,506,l),
(44,479,l),
(135,479,l),
(134,93,ls),
(134,45,o),
(155,-9,o),
(230,-9,cs),
(321,-9,o),
(331,60,o),
(331,78,c),
(304,78,l),
(304,60,o),
(289,18,o),
(232,18,cs),
(166,18,o),
(164,79,o),
(164,93,cs),
(165,479,l),
(331,479,l),
(331,506,l),
(164.614,506,l),
(165,766,l),
(135,766,l)
);
}
);
width = 348;
},
{
associatedMasterId = m01;
layerId = "D7FD212E-E494-45F6-B9EC-D9C12C936EB3";
name = "Apr 29, 21, 23:37";
shapes = (
{
closed = 1;
nodes = (
(134,93,l),
(164,93,l),
(165,787,l),
(135,787,l)
);
},
{
closed = 1;
nodes = (
(44,479,l),
(331,479,l),
(331,506,l),
(44,506,l)
);
},
{
closed = 1;
nodes = (
(134,45,o),
(155,-9,o),
(230,-9,cs),
(321,-9,o),
(331,60,o),
(331,78,c),
(304,78,l),
(304,60,o),
(289,18,o),
(232,18,cs),
(166,18,o),
(164,79,o),
(164,93,c),
(134,93,l)
);
}
);
width = 348;
},
{
layerId = m01;
name = Regular;
shapes = (
{
closed = 1;
nodes = (
(112,105,l),
(142,105,l),
(143,773,l),
(113,773,l)
);
},
{
closed = 1;
nodes = (
(10,479,l),
(308,479,l),
(308,506,l),
(10,506,l)
);
},
{
closed = 1;
nodes = (
(320,28,l),
(292,14,o),
(265,6,o),
(232,6,cs),
(210,6,o),
(140,5,o),
(142,105,c),
(112,105,l),
(112,-15,o),
(198,-21,o),
(232,-21,cs),
(267,-21,o),
(293,-13,o),
(320,-1,c)
);
}
);
width = 330;
}
);
unicode = 116;
},
{
glyphname = u;
lastChange = "2022-02-22 07:13:36 +0000";
layers = (
{
layerId = m01;
shapes = (
{
closed = 1;
nodes = (
(30,506,l),
(31,181,l),
(31,12,o),
(115,-25,o),
(202,-25,cs),
(289,-25,o),
(373,45,o),
(373,171,c),
(361,171,l),
(361,65,o),
(276,5,o),
(202,5,cs),
(105,5,o),
(61,62,o),
(61,181,c),
(60,506,l)
);
},
{
closed = 1;
nodes = (
(361,506,l),
(361,-9,l),
(391,-9,l),
(391,506,l)
);
}
);
width = 451;
}
);
unicode = 117;
},
{
glyphname = v;
lastChange = "2021-05-21 17:45:04 +0000";
layers = (
{
guides = (
{
pos = (191,31);
}
);
layerId = m01;
shapes = (
{
closed = 1;
nodes = (
(174,-9,l),
(208,-9,l),
(372,506,l),
(338,506,l),
(188,14,l),
(194,14,l),
(44,506,l),
(10,506,l)
);
}
);
width = 382;
},
{
associatedMasterId = m01;
layerId = "618F6FCC-0AFE-439E-838C-45EA5A330A52";
name = "Apr 29, 21, 23:55";
shapes = (
{
closed = 1;
nodes = (
(193,-9,l),
(227,-9,l),
(63,506,l),
(29,506,l)
);
},
{
closed = 1;
nodes = (
(357,506,l),
(193,-9,l),
(227,-9,l),
(391,506,l)
);
}
);
width = 440;
}
);
unicode = 118;
},
{
glyphname = w;
lastChange = "2021-05-21 17:45:50 +0000";
layers = (
{
guides = (
{
orientation = center;
pos = (314,31);
}
);
layerId = m01;
shapes = (
{
closed = 1;
nodes = (
(299,506,l),
(163,2,l),
(181,2,l),
(42,506,l),
(10,506,l),
(158,-9,l),
(186,-9,l),
(314,462,l),
(442,-9,l),
(470,-9,l),
(618,506,l),
(586,506,l),
(447,2,l),
(465,2,l),
(329,506,l)
);
}
);
width = 628;
},
{
associatedMasterId = m01;
layerId = "CAD8241C-1879-437B-9187-17AF4F8A9718";
name = "May 1, 21, 13:19";
shapes = (
{
closed = 1;
nodes = (
(179,-9,l),
(213,-9,l),
(54,506,l),
(20,506,l)
);
},
{
closed = 1;
nodes = (
(308,506,l),
(179,-9,l),
(213,-9,l),
(342,506,l)
);
},
{
closed = 1;
nodes = (
(437,-9,l),
(471,-9,l),
(342,506,l),
(308,506,l)
);
},
{
closed = 1;
nodes = (
(596,506,l),
(437,-9,l),
(471,-9,l),
(630,506,l)
);
}
);
width = 650;
}
);
unicode = 119;
},
{
glyphname = x;
kernRight = o;
lastChange = "2021-05-04 06:43:17 +0000";
layers = (
{
layerId = m01;
shapes = (
{
closed = 1;
nodes = (
(215,265,l),
(20,-9,l),
(54,-9,l),
(242,253,l),
(223,253,l),
(410,-9,l),
(444,-9,l),
(249,265,l),
(423,506,l),
(389,506,l),
(226,278,l),
(239,278,l),
(75,506,l),
(41,506,l)
);
}
);
width = 464;
},
{
associatedMasterId = m01;
layerId = "C376D4FE-FAB5-4050-9CCB-CF394D34A9DD";
name = "Apr 29, 21, 23:47";
shapes = (
{
closed = 1;
nodes = (
(368,-9,l),
(402,-9,l),
(73,506,l),
(39,506,l)
);
},
{
closed = 1;
nodes = (
(347,506,l),
(18,-9,l),
(52,-9,l),
(381,506,l)
);
}
);
width = 420;
},
{
associatedMasterId = m01;
layerId = "21268C55-B90C-49F3-BC05-DB7036E60647";
name = "May 1, 21, 15:53";
shapes = (
{
closed = 1;
nodes = (
(215,265,l),
(20,-9,l),
(54,-9,l),
(239,253,l),
(226,253,l),
(410,-9,l),
(444,-9,l),
(249,265,l),
(423,506,l),
(389,506,l),
(229,278,l),
(236,278,l),
(75,506,l),
(41,506,l)
);
}
);
width = 464;
}
);
unicode = 120;
},
{
glyphname = y;
lastChange = "2021-05-01 22:55:25 +0000";
layers = (
{
layerId = m01;
shapes = (
{
closed = 1;
nodes = (
(185,6,l),
(146,-124,o),
(125,-183,o),
(42,-183,c),
(42,-208,l),
(125,-208,o),
(149,-188,o),
(218,6,c),
(392,506,l),
(358,506,l),
(191,11,l),
(211,11,l),
(44,506,l),
(10,506,l)
);
}
);
width = 402;
},
{
associatedMasterId = m01;
layerId = "0DBA7685-47E6-462D-A4B6-FF36ECD6E78E";
name = "Apr 29, 21, 23:57";
shapes = (
{
closed = 1;
nodes = (
(223,-9,l),
(257,-9,l),
(63,506,l),
(29,506,l)
);
},
{
closed = 1;
nodes = (
(417,506,l),
(223,-9,l),
(257,-9,l),
(322,163,o),
(386,334,o),
(451,506,c)
);
},
{
closed = 1;
nodes = (
(185,-200,l),
(209,-136,o),
(233,-73,o),
(257,-9,c),
(223,-9,l),
(151,-200,l)
);
}
);
width = 480;
},
{
associatedMasterId = m01;
layerId = "6B39F823-7DA7-45D6-93B3-8FD81C65DC13";
name = "May 1, 21, 13:42";
shapes = (
{
closed = 1;
nodes = (
(184,-9,l),
(125,-200,l),
(159,-200,l),
(218,-9,l),
(392,506,l),
(358,506,l),
(190,-6,l),
(212,-6,l),
(44,506,l),
(10,506,l)
);
}
);
width = 402;
},
{
associatedMasterId = m01;
layerId = "37EF84EF-A66D-41CE-8150-BC24787EF08E";
name = "May 1, 21, 15:55";
shapes = (
{
closed = 1;
nodes = (
(185,6,l),
(146,-124,o),
(125,-183,o),
(42,-183,c),
(42,-208,l),
(125,-208,o),
(149,-188,o),
(218,6,c),
(392,506,l),
(358,506,l),
(193,11,l),
(209,11,l),
(44,506,l),
(10,506,l)
);
}
);
width = 402;
}
);
unicode = 121;
},
{
glyphname = z;
lastChange = "2021-05-21 19:00:36 +0000";
layers = (
{
layerId = m01;
shapes = (
{
closed = 1;
nodes = (
(351,479,l),
(338,495,l),
(10,13,l),
(10,-9,l),
(378,-9,l),
(378,18,l),
(28,18,l),
(36,-1,l),
(362,480,l),
(362,506,l),
(35,506,l),
(35,479,l)
);
}
);
width = 388;
}
);
unicode = 122;
},
{
glyphname = period;
lastChange = "2021-05-05 00:24:37 +0000";
layers = (
{
layerId = m01;
shapes = (
{
closed = 1;
nodes = (
(55,-10,o),
(63,-2,o),
(63,12,cs),
(63,24,o),
(55,32,o),
(43,32,cs),
(30,32,o),
(22,24,o),
(22,12,cs),
(22,-2,o),
(30,-10,o),
(43,-10,cs)
);
}
);
width = 85;
}
);
unicode = 46;
},
{
glyphname = comma;
lastChange = "2022-02-22 07:20:08 +0000";
layers = (
{
layerId = m01;
shapes = (
{
closed = 1;
nodes = (
(20,-64,l),
(36,-64,l),
(72,40,l),
(44,40,l)
);
}
);
width = 92;
}
);
unicode = 44;
},
{
glyphname = hyphen;
lastChange = "2021-05-05 00:25:33 +0000";
layers = (
{
layerId = m01;
shapes = (
{
closed = 1;
nodes = (
(316,290,l),
(316,317,l),
(45,317,l),
(45,290,l)
);
}
